<?xml version="1.0" standalone="no"?><!DOCTYPE svg PUBLIC "-//W3C//DTD SVG 1.1//EN" "http://www.w3.org/Graphics/SVG/1.1/DTD/svg11.dtd"><svg t="1649779094562" class="icon" viewBox="0 0 1024 1024" version="1.1" xmlns="http://www.w3.org/2000/svg" p-id="2930" xmlns:xlink="http://www.w3.org/1999/xlink" width="128" height="128"><defs><style type="text/css"></style></defs><path d="M944.256 926.4c-31.04 0-820.8 0-865.792 0-44.288 0-65.856-52.16-46.4-91.968C58.688 780.096 441.216 136.064 465.088 90.176c21.376-41.216 72.384-41.92 93.76 0 32.576 63.808 413.248 704.96 432 742.272C1014.464 879.104 984.576 926.4 944.256 926.4L944.256 926.4zM466.496 332.736l30.464 319.616 45.632 0 30.528-319.616L466.496 332.736 466.496 332.736zM573.12 698.112 466.496 698.112l0 91.264 106.624 0L573.12 698.112 573.12 698.112z" p-id="2931" fill="#ff654d"></path></svg>