<svg width="1190" height="881" xmlns="http://www.w3.org/2000/svg" xmlns:xlink="http://www.w3.org/1999/xlink" version="1.1" baseProfile="full" viewBox="0 0 1190 881">
<rect width="1190" height="881" x="0" y="0" id="0" fill="none" fill-opacity="1"></rect>
<path d="M294.625 440.5A15 15 0 1 1 264.625 440.5A330.375 330.375 0 1 1 925.375 440.5A15 15 0 1 1 895.375 440.5A300.375 300.375 0 0 0 294.625 440.5" fill="#E6EBF8"></path>
<path d="M304.625 440.5L329.625 440.5" fill="none" stroke="#555" stroke-width="5"></path>
<text dominant-baseline="central" text-anchor="start" style="font-size:30px;font-family:Microsoft YaHei;" x="339.625" y="440.50000000000006" fill="#555">1200</text>
<path d="M304.625 440.5L319.625 440.5" fill="none" stroke="#555" stroke-width="3"></path>
<path d="M305.3323 420.2445L320.2958 421.2908" fill="none" stroke="#555" stroke-width="3"></path>
<path d="M307.4509 400.0876L322.3049 402.1752" fill="none" stroke="#555" stroke-width="3"></path>
<path d="M310.9704 380.1276L325.6426 383.2463" fill="none" stroke="#555" stroke-width="3"></path>
<path d="M315.8736 360.4618L330.2926 364.5964" fill="none" stroke="#555" stroke-width="3"></path>
<path d="M322.1368 341.1859L336.2321 346.3162" fill="none" stroke="#555" stroke-width="3"></path>
<path d="M322.1368 341.1859L345.6291 349.7364" fill="none" stroke="#555" stroke-width="5"></path>
<text dominant-baseline="central" text-anchor="start" style="font-size:30px;font-family:Microsoft YaHei;" x="355.02599696679863" y="353.15660589820726" fill="#555">1100</text>
<path d="M322.1368 341.1859L336.2321 346.3162" fill="none" stroke="#555" stroke-width="3"></path>
<path d="M329.7292 322.3938L343.4324 328.4949" fill="none" stroke="#555" stroke-width="3"></path>
<path d="M338.6141 304.1772L351.8583 311.2193" fill="none" stroke="#555" stroke-width="3"></path>
<path d="M348.748 286.6247L361.4688 294.5735" fill="none" stroke="#555" stroke-width="3"></path>
<path d="M360.0817 269.8219L372.2169 278.6386" fill="none" stroke="#555" stroke-width="3"></path>
<path d="M372.5598 253.8505L384.0505 263.4924" fill="none" stroke="#555" stroke-width="3"></path>
<path d="M372.5598 253.8505L391.711 269.9202" fill="none" stroke="#555" stroke-width="5"></path>
<text dominant-baseline="central" text-anchor="start" style="font-size:30px;font-family:Microsoft YaHei;" x="399.3714003384911" y="276.3481141762999" fill="#555">1000</text>
<path d="M372.5598 253.8505L384.0505 263.4924" fill="none" stroke="#555" stroke-width="3"></path>
<path d="M386.1217 238.7886L396.9118 249.2085" fill="none" stroke="#555" stroke-width="3"></path>
<path d="M400.7012 224.7093L410.7382 235.8565" fill="none" stroke="#555" stroke-width="3"></path>
<path d="M416.2273 211.6814L425.4622 223.5015" fill="none" stroke="#555" stroke-width="3"></path>
<path d="M432.6244 199.7682L441.0123 212.2038" fill="none" stroke="#555" stroke-width="3"></path>
<path d="M449.8125 189.0279L457.3125 202.0183" fill="none" stroke="#555" stroke-width="3"></path>
<path d="M449.8125 189.0279L462.3125 210.6785" fill="none" stroke="#555" stroke-width="5"></path>
<text dominant-baseline="central" text-anchor="start" style="font-size:30px;font-family:Microsoft YaHei;" x="467.3125000000003" y="234.33876250854883" fill="#555">900</text>
<path d="M449.8125 189.0279L457.3125 202.0183" fill="none" stroke="#555" stroke-width="3"></path>
<path d="M467.708 179.5127L474.2835 192.9946" fill="none" stroke="#555" stroke-width="3"></path>
<path d="M486.2236 171.269L491.8427 185.1767" fill="none" stroke="#555" stroke-width="3"></path>
<path d="M505.2692 164.337L509.9044 178.6028" fill="none" stroke="#555" stroke-width="3"></path>
<path d="M524.7519 158.7504L528.3808 173.3048" fill="none" stroke="#555" stroke-width="3"></path>
<path d="M544.5769 154.5364L547.1816 169.3086" fill="none" stroke="#555" stroke-width="3"></path>
<path d="M544.5769 154.5364L548.9181 179.1566" fill="none" stroke="#555" stroke-width="5"></path>
<text dominant-baseline="central" text-anchor="middle" style="font-size:30px;font-family:Microsoft YaHei;" x="550.6545966283081" y="204.0047200745073" fill="#555">800</text>
<path d="M544.5769 154.5364L547.1816 169.3086" fill="none" stroke="#555" stroke-width="3"></path>
<path d="M564.6475 151.7157L566.2155 166.6335" fill="none" stroke="#555" stroke-width="3"></path>
<path d="M584.8661 150.3019L585.3896 165.2928" fill="none" stroke="#555" stroke-width="3"></path>
<path d="M605.1339 150.3019L604.6104 165.2928" fill="none" stroke="#555" stroke-width="3"></path>
<path d="M625.3525 151.7157L623.7845 166.6335" fill="none" stroke="#555" stroke-width="3"></path>
<path d="M645.4231 154.5364L642.8184 169.3086" fill="none" stroke="#555" stroke-width="3"></path>
<path d="M645.4231 154.5364L641.0819 179.1566" fill="none" stroke="#555" stroke-width="5"></path>
<text dominant-baseline="central" text-anchor="middle" style="font-size:30px;font-family:Microsoft YaHei;" x="639.3454033716929" y="204.00472007450747" fill="#555">700</text>
<path d="M645.4231 154.5364L642.8184 169.3086" fill="none" stroke="#555" stroke-width="3"></path>
<path d="M665.2481 158.7504L661.6192 173.3048" fill="none" stroke="#555" stroke-width="3"></path>
<path d="M684.7308 164.337L680.0956 178.6028" fill="none" stroke="#555" stroke-width="3"></path>
<path d="M703.7764 171.269L698.1573 185.1767" fill="none" stroke="#555" stroke-width="3"></path>
<path d="M722.292 179.5127L715.7165 192.9946" fill="none" stroke="#555" stroke-width="3"></path>
<path d="M740.1875 189.0279L732.6875 202.0183" fill="none" stroke="#555" stroke-width="3"></path>
<path d="M740.1875 189.0279L727.6875 210.6785" fill="none" stroke="#555" stroke-width="5"></path>
<text dominant-baseline="central" text-anchor="end" style="font-size:30px;font-family:Microsoft YaHei;" x="722.6875000000007" y="234.33876250854934" fill="#555">600</text>
<path d="M740.1875 189.0279L732.6875 202.0183" fill="none" stroke="#555" stroke-width="3"></path>
<path d="M757.3756 199.7682L748.9877 212.2038" fill="none" stroke="#555" stroke-width="3"></path>
<path d="M773.7727 211.6814L764.5378 223.5015" fill="none" stroke="#555" stroke-width="3"></path>
<path d="M789.2988 224.7093L779.2618 235.8565" fill="none" stroke="#555" stroke-width="3"></path>
<path d="M803.8783 238.7886L793.0882 249.2085" fill="none" stroke="#555" stroke-width="3"></path>
<path d="M817.4402 253.8505L805.9495 263.4924" fill="none" stroke="#555" stroke-width="3"></path>
<path d="M817.4402 253.8505L798.289 269.9202" fill="none" stroke="#555" stroke-width="5"></path>
<text dominant-baseline="central" text-anchor="end" style="font-size:30px;font-family:Microsoft YaHei;" x="790.6285996615095" y="276.34811417630067" fill="#555">500</text>
<path d="M817.4402 253.8505L805.9495 263.4924" fill="none" stroke="#555" stroke-width="3"></path>
<path d="M829.9183 269.8219L817.7831 278.6386" fill="none" stroke="#555" stroke-width="3"></path>
<path d="M841.252 286.6247L828.5312 294.5735" fill="none" stroke="#555" stroke-width="3"></path>
<path d="M851.3859 304.1772L838.1417 311.2193" fill="none" stroke="#555" stroke-width="3"></path>
<path d="M860.2708 322.3938L846.5676 328.4949" fill="none" stroke="#555" stroke-width="3"></path>
<path d="M867.8632 341.1859L853.7679 346.3162" fill="none" stroke="#555" stroke-width="3"></path>
<path d="M867.8632 341.1859L844.3709 349.7364" fill="none" stroke="#555" stroke-width="5"></path>
<text dominant-baseline="central" text-anchor="end" style="font-size:30px;font-family:Microsoft YaHei;" x="834.9740030332017" y="353.1566058982082" fill="#555">400</text>
<path d="M867.8632 341.1859L853.7679 346.3162" fill="none" stroke="#555" stroke-width="3"></path>
<path d="M874.1264 360.4618L859.7074 364.5964" fill="none" stroke="#555" stroke-width="3"></path>
<path d="M879.0296 380.1276L864.3574 383.2463" fill="none" stroke="#555" stroke-width="3"></path>
<path d="M882.5491 400.0876L867.6951 402.1752" fill="none" stroke="#555" stroke-width="3"></path>
<path d="M884.6677 420.2445L869.7042 421.2908" fill="none" stroke="#555" stroke-width="3"></path>
<path d="M885.375 440.5L870.375 440.5" fill="none" stroke="#555" stroke-width="3"></path>
<path d="M885.375 440.5L860.375 440.5" fill="none" stroke="#555" stroke-width="5"></path>
<text dominant-baseline="central" text-anchor="end" style="font-size:30px;font-family:Microsoft YaHei;" x="850.375" y="440.5000000000011" fill="#555">300</text>
<path d="M595 473.5375l0 0l0 0l0 0Z" fill="#f0f"></path>
<path d="M-0.0003 16.5187C1.3679 16.5187 2.492 16.5187 2.5466 16.5187L7.9935 16.5187C8.1701 16.5187 4.7344 16.5187 0.3198 16.5187C0.213 16.5187 0.1065 16.5187 -0.0003 16.5187C-4.4185 16.5187 -8 16.5187 -8 16.5187C-8 16.5187 -7.9979 16.5187 -7.9937 16.5187L-2.5468 16.5187C-2.4923 16.5187 -1.3681 16.5187 -0.0003 16.5187Z" transform="matrix(0,1,-1,0,595,440.5)" fill="#acc2cb"></path>
<path d="M294.625 440.5A15 15 0 1 1 264.625 440.5A330.375 330.375 0 1 1 925.375 440.5A15 15 0 1 1 895.375 440.5A300.375 300.375 0 0 0 294.625 440.5" fill="#acc2cb"></path>
</svg>