<?xml version="1.0" standalone="no"?><!DOCTYPE svg PUBLIC "-//W3C//DTD SVG 1.1//EN" "http://www.w3.org/Graphics/SVG/1.1/DTD/svg11.dtd"><svg t="1649754030366" class="icon" viewBox="0 0 1024 1024" version="1.1" xmlns="http://www.w3.org/2000/svg" p-id="7116" xmlns:xlink="http://www.w3.org/1999/xlink" width="128" height="128"><defs><style type="text/css"></style></defs><path d="M870.4 102.4H153.6c-30.7 0-51.2 20.5-51.2 51.2v563.2c0 30.7 20.5 51.2 51.2 51.2h256v51.2H256v102.4h512V819.2H614.4V768h256c30.7 0 51.2-20.5 51.2-51.2V153.6c0-30.7-20.5-51.2-51.2-51.2z m-51.2 563.2H204.8V204.8h614.4v460.8z" p-id="7117" fill="#d8e3e7"></path><path d="M623.2 413.6c-2.7-11-7.1-21.6-12.9-31.3l27.4-39.2-28-28.1-38.6 27.9c-9.8-5.9-20.3-10.3-31.4-13.1l-8.3-47h-39.5l-7.6 46.8c-11.3 2.8-21.9 7.1-31.5 12.9L414.3 315l-28 28.1 27.1 38.8c-6 9.8-10.4 20.5-13.2 31.7l-46.5 7.7V461l46.5 8.3c2.7 11.3 7.2 22 13.2 31.7l-27.5 38.5 28 28.1 38.8-27.2c9.7 5.9 20.3 10.3 31.5 13l7.7 46.9h39.6l8.3-47c11-2.8 21.6-7.2 31.3-13.2l39 27.5 28-28.1-27.9-38.8c5.8-9.7 10.1-20.1 12.9-31.4l47.2-8.2v-39.7l-47.1-7.8zM512 496.9c-14.7 0-28.7-5.9-39.1-16.3-10.3-10.4-16.2-24.5-16.1-39.1 0-30.6 24.7-55.4 55.2-55.4 30.5 0 55.2 24.8 55.2 55.4 0 30.5-24.7 55.4-55.2 55.4z" p-id="7118" fill="#d8e3e7"></path></svg>