<svg width="1190" height="882" xmlns="http://www.w3.org/2000/svg" xmlns:xlink="http://www.w3.org/1999/xlink" version="1.1" baseProfile="full" viewBox="0 0 1190 882">
<rect width="1190" height="882" x="0" y="0" id="0" fill="none" fill-opacity="1"></rect>
<path d="M264.25 441A0 0 0 1 1 264.25 441A330.75 330.75 0 1 1 925.75 441A0 0 0 1 1 925.75 441A330.75 330.75 0 0 0 264.25 441" fill="#E6EBF8"></path>
<path d="M274.25 441" fill="none" stroke="#999" stroke-width="0"></path>
<path d="M274.25 441L280.25 441" fill="none" stroke="#999" stroke-width="0"></path>
<path d="" fill="none" stroke="#999" stroke-width="0"></path>
<path d="" fill="none" stroke="#999" stroke-width="0"></path>
<path d="" fill="none" stroke="#999" stroke-width="0"></path>
<path d="" fill="none" stroke="#999" stroke-width="0"></path>
<path d="" fill="none" stroke="#999" stroke-width="0"></path>
<path d="" fill="none" stroke="#999" stroke-width="0"></path>
<path d="" fill="none" stroke="#999" stroke-width="0"></path>
<path d="" fill="none" stroke="#999" stroke-width="0"></path>
<path d="" fill="none" stroke="#999" stroke-width="0"></path>
<path d="" fill="none" stroke="#999" stroke-width="0"></path>
<path d="" fill="none" stroke="#999" stroke-width="0"></path>
<path d="" fill="none" stroke="#999" stroke-width="0"></path>
<path d="" fill="none" stroke="#999" stroke-width="0"></path>
<path d="" fill="none" stroke="#999" stroke-width="0"></path>
<path d="" fill="none" stroke="#999" stroke-width="0"></path>
<path d="" fill="none" stroke="#999" stroke-width="0"></path>
<path d="" fill="none" stroke="#999" stroke-width="0"></path>
<path d="" fill="none" stroke="#999" stroke-width="0"></path>
<path d="" fill="none" stroke="#999" stroke-width="0"></path>
<path d="M595 606.375l0 0l0 0l0 0Z" fill="#f0f"></path>
<path d="M-0.0003 -198.45C1.7098 -198.45 3.115 -196.8696 3.1832 -194.8693L9.9919 4.3627C10.2126 10.823 5.918 16.2696 0.3997 16.5281C0.2662 16.5343 0.1331 16.5375 -0.0003 16.5375C-5.5231 16.5375 -10 11.2961 -10 4.8307C-10 4.6747 -9.9974 4.5186 -9.9922 4.3627L-3.1836 -194.8693C-3.1153 -196.8696 -1.7101 -198.45 -0.0003 -198.45Z" transform="matrix(0,-1,1,0,595,441)" fill="#FF826E"></path>
</svg>