<?xml version="1.0" standalone="no"?><!DOCTYPE svg PUBLIC "-//W3C//DTD SVG 1.1//EN" "http://www.w3.org/Graphics/SVG/1.1/DTD/svg11.dtd"><svg t="1649686666818" class="icon" viewBox="0 0 1077 1024" version="1.1" xmlns="http://www.w3.org/2000/svg" p-id="25763" xmlns:xlink="http://www.w3.org/1999/xlink" width="134.625" height="128"><defs><style type="text/css"></style></defs><path d="M970.105263 0H107.789474a107.789474 107.789474 0 0 0-107.789474 107.789474v646.736842a107.789474 107.789474 0 0 0 107.789474 107.789473h862.315789a107.789474 107.789474 0 0 0 107.789474-107.789473V107.789474a107.789474 107.789474 0 0 0-107.789474-107.789474z m0 754.526316H107.789474V107.789474h862.315789zM808.421053 916.210526H269.473684a53.894737 53.894737 0 0 0 0 107.789474h538.947369a53.894737 53.894737 0 0 0 0-107.789474z" p-id="25764" fill="#d8e3e7"></path><path d="M307.738947 577.212632l114.256842-114.79579L538.947368 577.212632a53.894737 53.894737 0 0 0 76.530527 0l233.903158-234.442106A53.894737 53.894737 0 0 0 770.694737 269.473684l-196.176842 193.482105-114.256842-114.795789a53.894737 53.894737 0 0 0-76.530527 0L231.208421 500.682105a53.894737 53.894737 0 0 0 76.530526 76.530527z" p-id="25765" fill="#d8e3e7"></path></svg>