<svg width="1190" height="881" xmlns="http://www.w3.org/2000/svg" xmlns:xlink="http://www.w3.org/1999/xlink" version="1.1" baseProfile="full" viewBox="0 0 1190 881">
<rect width="1190" height="881" x="0" y="0" id="0" fill="none" fill-opacity="1"></rect>
<path d="M119 811.5L1071 811.5" fill="none" stroke="#7597A4" stroke-dasharray="4,2"></path>
<path d="M119 773.5L1071 773.5" fill="none" stroke="#7597A4" stroke-dasharray="4,2"></path>
<path d="M119 736.5L1071 736.5" fill="none" stroke="#7597A4" stroke-dasharray="4,2"></path>
<path d="M119 698.5L1071 698.5" fill="none" stroke="#7597A4" stroke-dasharray="4,2"></path>
<path d="M119 661.5L1071 661.5" fill="none" stroke="#7597A4" stroke-dasharray="4,2"></path>
<path d="M119 623.5L1071 623.5" fill="none" stroke="#7597A4" stroke-dasharray="4,2"></path>
<path d="M119 585.5L1071 585.5" fill="none" stroke="#7597A4" stroke-dasharray="4,2"></path>
<path d="M119 548.5L1071 548.5" fill="none" stroke="#7597A4" stroke-dasharray="4,2"></path>
<path d="M119 510.5L1071 510.5" fill="none" stroke="#7597A4" stroke-dasharray="4,2"></path>
<path d="M119 473.5L1071 473.5" fill="none" stroke="#7597A4" stroke-dasharray="4,2"></path>
<path d="M119 435.5L1071 435.5" fill="none" stroke="#7597A4" stroke-dasharray="4,2"></path>
<path d="M119 398.5L1071 398.5" fill="none" stroke="#7597A4" stroke-dasharray="4,2"></path>
<path d="M119 360.5L1071 360.5" fill="none" stroke="#7597A4" stroke-dasharray="4,2"></path>
<path d="M119 323.5L1071 323.5" fill="none" stroke="#7597A4" stroke-dasharray="4,2"></path>
<path d="M119 285.5L1071 285.5" fill="none" stroke="#7597A4" stroke-dasharray="4,2"></path>
<path d="M119 248.5L1071 248.5" fill="none" stroke="#7597A4" stroke-dasharray="4,2"></path>
<path d="M119 210.5L1071 210.5" fill="none" stroke="#7597A4" stroke-dasharray="4,2"></path>
<path d="M119 172.5L1071 172.5" fill="none" stroke="#7597A4" stroke-dasharray="4,2"></path>
<path d="M119 135.5L1071 135.5" fill="none" stroke="#7597A4" stroke-dasharray="4,2"></path>
<path d="M119 97.5L1071 97.5" fill="none" stroke="#7597A4" stroke-dasharray="4,2"></path>
<path d="M119 60.5L1071 60.5" fill="none" stroke="#7597A4" stroke-dasharray="4,2"></path>
<path d="M119.5 60L119.5 811" fill="none" stroke="#7597A4" stroke-dasharray="4,2"></path>
<path d="M198.5 60L198.5 811" fill="none" stroke="#7597A4" stroke-dasharray="4,2"></path>
<path d="M277.5 60L277.5 811" fill="none" stroke="#7597A4" stroke-dasharray="4,2"></path>
<path d="M357.5 60L357.5 811" fill="none" stroke="#7597A4" stroke-dasharray="4,2"></path>
<path d="M436.5 60L436.5 811" fill="none" stroke="#7597A4" stroke-dasharray="4,2"></path>
<path d="M515.5 60L515.5 811" fill="none" stroke="#7597A4" stroke-dasharray="4,2"></path>
<path d="M595.5 60L595.5 811" fill="none" stroke="#7597A4" stroke-dasharray="4,2"></path>
<path d="M674.5 60L674.5 811" fill="none" stroke="#7597A4" stroke-dasharray="4,2"></path>
<path d="M753.5 60L753.5 811" fill="none" stroke="#7597A4" stroke-dasharray="4,2"></path>
<path d="M833.5 60L833.5 811" fill="none" stroke="#7597A4" stroke-dasharray="4,2"></path>
<path d="M912.5 60L912.5 811" fill="none" stroke="#7597A4" stroke-dasharray="4,2"></path>
<path d="M991.5 60L991.5 811" fill="none" stroke="#7597A4" stroke-dasharray="4,2"></path>
<path d="M1071.5 60L1071.5 811" fill="none" stroke="#7597A4" stroke-dasharray="4,2"></path>
<path d="M119.5 811L119.5 60" fill="none" stroke="#6E7079" stroke-linecap="round"></path>
<path d="M119 698.5L1071 698.5" fill="none" stroke="#6E7079" stroke-linecap="round"></path>
<path d="M119 811.5L114 811.5" fill="none" stroke="#6E7079"></path>
<path d="M119 773.5L114 773.5" fill="none" stroke="#6E7079"></path>
<path d="M119 736.5L114 736.5" fill="none" stroke="#6E7079"></path>
<path d="M119 698.5L114 698.5" fill="none" stroke="#6E7079"></path>
<path d="M119 661.5L114 661.5" fill="none" stroke="#6E7079"></path>
<path d="M119 623.5L114 623.5" fill="none" stroke="#6E7079"></path>
<path d="M119 585.5L114 585.5" fill="none" stroke="#6E7079"></path>
<path d="M119 548.5L114 548.5" fill="none" stroke="#6E7079"></path>
<path d="M119 510.5L114 510.5" fill="none" stroke="#6E7079"></path>
<path d="M119 473.5L114 473.5" fill="none" stroke="#6E7079"></path>
<path d="M119 435.5L114 435.5" fill="none" stroke="#6E7079"></path>
<path d="M119 398.5L114 398.5" fill="none" stroke="#6E7079"></path>
<path d="M119 360.5L114 360.5" fill="none" stroke="#6E7079"></path>
<path d="M119 323.5L114 323.5" fill="none" stroke="#6E7079"></path>
<path d="M119 285.5L114 285.5" fill="none" stroke="#6E7079"></path>
<path d="M119 248.5L114 248.5" fill="none" stroke="#6E7079"></path>
<path d="M119 210.5L114 210.5" fill="none" stroke="#6E7079"></path>
<path d="M119 172.5L114 172.5" fill="none" stroke="#6E7079"></path>
<path d="M119 135.5L114 135.5" fill="none" stroke="#6E7079"></path>
<path d="M119 97.5L114 97.5" fill="none" stroke="#6E7079"></path>
<path d="M119 60.5L114 60.5" fill="none" stroke="#6E7079"></path>
<path d="M119.5 698.35L119.5 703.35" fill="none" stroke="#6E7079"></path>
<path d="M198.5 698.35L198.5 703.35" fill="none" stroke="#6E7079"></path>
<path d="M277.5 698.35L277.5 703.35" fill="none" stroke="#6E7079"></path>
<path d="M357.5 698.35L357.5 703.35" fill="none" stroke="#6E7079"></path>
<path d="M436.5 698.35L436.5 703.35" fill="none" stroke="#6E7079"></path>
<path d="M515.5 698.35L515.5 703.35" fill="none" stroke="#6E7079"></path>
<path d="M595.5 698.35L595.5 703.35" fill="none" stroke="#6E7079"></path>
<path d="M674.5 698.35L674.5 703.35" fill="none" stroke="#6E7079"></path>
<path d="M753.5 698.35L753.5 703.35" fill="none" stroke="#6E7079"></path>
<path d="M833.5 698.35L833.5 703.35" fill="none" stroke="#6E7079"></path>
<path d="M912.5 698.35L912.5 703.35" fill="none" stroke="#6E7079"></path>
<path d="M991.5 698.35L991.5 703.35" fill="none" stroke="#6E7079"></path>
<path d="M1071.5 698.35L1071.5 703.35" fill="none" stroke="#6E7079"></path>
<text dominant-baseline="central" text-anchor="end" style="font-size:30px;font-family:Arial;" transform="translate(111 811)" fill="#555">-15</text>
<text dominant-baseline="central" text-anchor="end" style="font-size:30px;font-family:Arial;" transform="translate(111 773.45)" fill="#555">-10</text>
<text dominant-baseline="central" text-anchor="end" style="font-size:30px;font-family:Arial;" transform="translate(111 735.9)" fill="#555">-5</text>
<text dominant-baseline="central" text-anchor="end" style="font-size:30px;font-family:Arial;" transform="translate(111 698.35)" fill="#555">0</text>
<text dominant-baseline="central" text-anchor="end" style="font-size:30px;font-family:Arial;" transform="translate(111 660.8)" fill="#555">5</text>
<text dominant-baseline="central" text-anchor="end" style="font-size:30px;font-family:Arial;" transform="translate(111 623.25)" fill="#555">10</text>
<text dominant-baseline="central" text-anchor="end" style="font-size:30px;font-family:Arial;" transform="translate(111 585.7)" fill="#555">15</text>
<text dominant-baseline="central" text-anchor="end" style="font-size:30px;font-family:Arial;" transform="translate(111 548.15)" fill="#555">20</text>
<text dominant-baseline="central" text-anchor="end" style="font-size:30px;font-family:Arial;" transform="translate(111 510.6)" fill="#555">25</text>
<text dominant-baseline="central" text-anchor="end" style="font-size:30px;font-family:Arial;" transform="translate(111 473.05)" fill="#555">30</text>
<text dominant-baseline="central" text-anchor="end" style="font-size:30px;font-family:Arial;" transform="translate(111 435.5)" fill="#555">35</text>
<text dominant-baseline="central" text-anchor="end" style="font-size:30px;font-family:Arial;" transform="translate(111 397.95)" fill="#555">40</text>
<text dominant-baseline="central" text-anchor="end" style="font-size:30px;font-family:Arial;" transform="translate(111 360.4)" fill="#555">45</text>
<text dominant-baseline="central" text-anchor="end" style="font-size:30px;font-family:Arial;" transform="translate(111 322.85)" fill="#555">50</text>
<text dominant-baseline="central" text-anchor="end" style="font-size:30px;font-family:Arial;" transform="translate(111 285.3)" fill="#555">55</text>
<text dominant-baseline="central" text-anchor="end" style="font-size:30px;font-family:Arial;" transform="translate(111 247.75)" fill="#555">60</text>
<text dominant-baseline="central" text-anchor="end" style="font-size:30px;font-family:Arial;" transform="translate(111 210.2)" fill="#555">65</text>
<text dominant-baseline="central" text-anchor="end" style="font-size:30px;font-family:Arial;" transform="translate(111 172.65)" fill="#555">70</text>
<text dominant-baseline="central" text-anchor="end" style="font-size:30px;font-family:Arial;" transform="translate(111 135.1)" fill="#555">75</text>
<text dominant-baseline="central" text-anchor="end" style="font-size:30px;font-family:Arial;" transform="translate(111 97.55)" fill="#555">80</text>
<text dominant-baseline="central" text-anchor="end" style="font-size:30px;font-family:Arial;" transform="translate(111 60)" fill="#555">85</text>
<text dominant-baseline="central" text-anchor="middle" style="font-size:30px;font-family:Arial;" y="15" transform="translate(119 819)" fill="#555">0</text>
<text dominant-baseline="central" text-anchor="middle" style="font-size:30px;font-family:Arial;" y="15" transform="translate(198.3333 819)" fill="#555">50</text>
<text dominant-baseline="central" text-anchor="middle" style="font-size:30px;font-family:Arial;" y="15" transform="translate(277.6667 819)" fill="#555">100</text>
<text dominant-baseline="central" text-anchor="middle" style="font-size:30px;font-family:Arial;" y="15" transform="translate(357 819)" fill="#555">150</text>
<text dominant-baseline="central" text-anchor="middle" style="font-size:30px;font-family:Arial;" y="15" transform="translate(436.3333 819)" fill="#555">200</text>
<text dominant-baseline="central" text-anchor="middle" style="font-size:30px;font-family:Arial;" y="15" transform="translate(515.6667 819)" fill="#555">250</text>
<text dominant-baseline="central" text-anchor="middle" style="font-size:30px;font-family:Arial;" y="15" transform="translate(595 819)" fill="#555">300</text>
<text dominant-baseline="central" text-anchor="middle" style="font-size:30px;font-family:Arial;" y="15" transform="translate(674.3333 819)" fill="#555">350</text>
<text dominant-baseline="central" text-anchor="middle" style="font-size:30px;font-family:Arial;" y="15" transform="translate(753.6667 819)" fill="#555">400</text>
<text dominant-baseline="central" text-anchor="middle" style="font-size:30px;font-family:Arial;" y="15" transform="translate(833 819)" fill="#555">450</text>
<text dominant-baseline="central" text-anchor="middle" style="font-size:30px;font-family:Arial;" y="15" transform="translate(912.3333 819)" fill="#555">500</text>
<text dominant-baseline="central" text-anchor="middle" style="font-size:30px;font-family:Arial;" y="15" transform="translate(991.6667 819)" fill="#555">550</text>
<text dominant-baseline="central" text-anchor="middle" style="font-size:30px;font-family:Arial;" y="15" transform="translate(1071 819)" fill="#555">600</text>
</svg>