<svg width="1190" height="881" xmlns="http://www.w3.org/2000/svg" xmlns:xlink="http://www.w3.org/1999/xlink" version="1.1" baseProfile="full" viewBox="0 0 1190 881">
<rect width="1190" height="881" x="0" y="0" id="0" fill="none" fill-opacity="1"></rect>
<path d="M119 811.5L1071 811.5" fill="none" stroke="#7597A4" stroke-dasharray="4,2"></path>
<path d="M119 769.5L1071 769.5" fill="none" stroke="#7597A4" stroke-dasharray="4,2"></path>
<path d="M119 727.5L1071 727.5" fill="none" stroke="#7597A4" stroke-dasharray="4,2"></path>
<path d="M119 686.5L1071 686.5" fill="none" stroke="#7597A4" stroke-dasharray="4,2"></path>
<path d="M119 644.5L1071 644.5" fill="none" stroke="#7597A4" stroke-dasharray="4,2"></path>
<path d="M119 602.5L1071 602.5" fill="none" stroke="#7597A4" stroke-dasharray="4,2"></path>
<path d="M119 560.5L1071 560.5" fill="none" stroke="#7597A4" stroke-dasharray="4,2"></path>
<path d="M119 519.5L1071 519.5" fill="none" stroke="#7597A4" stroke-dasharray="4,2"></path>
<path d="M119 477.5L1071 477.5" fill="none" stroke="#7597A4" stroke-dasharray="4,2"></path>
<path d="M119 435.5L1071 435.5" fill="none" stroke="#7597A4" stroke-dasharray="4,2"></path>
<path d="M119 394.5L1071 394.5" fill="none" stroke="#7597A4" stroke-dasharray="4,2"></path>
<path d="M119 352.5L1071 352.5" fill="none" stroke="#7597A4" stroke-dasharray="4,2"></path>
<path d="M119 310.5L1071 310.5" fill="none" stroke="#7597A4" stroke-dasharray="4,2"></path>
<path d="M119 268.5L1071 268.5" fill="none" stroke="#7597A4" stroke-dasharray="4,2"></path>
<path d="M119 227.5L1071 227.5" fill="none" stroke="#7597A4" stroke-dasharray="4,2"></path>
<path d="M119 185.5L1071 185.5" fill="none" stroke="#7597A4" stroke-dasharray="4,2"></path>
<path d="M119 143.5L1071 143.5" fill="none" stroke="#7597A4" stroke-dasharray="4,2"></path>
<path d="M119 101.5L1071 101.5" fill="none" stroke="#7597A4" stroke-dasharray="4,2"></path>
<path d="M119 60.5L1071 60.5" fill="none" stroke="#7597A4" stroke-dasharray="4,2"></path>
<path d="M119.5 60L119.5 811" fill="none" stroke="#7597A4" stroke-dasharray="4,2"></path>
<path d="M198.5 60L198.5 811" fill="none" stroke="#7597A4" stroke-dasharray="4,2"></path>
<path d="M277.5 60L277.5 811" fill="none" stroke="#7597A4" stroke-dasharray="4,2"></path>
<path d="M357.5 60L357.5 811" fill="none" stroke="#7597A4" stroke-dasharray="4,2"></path>
<path d="M436.5 60L436.5 811" fill="none" stroke="#7597A4" stroke-dasharray="4,2"></path>
<path d="M515.5 60L515.5 811" fill="none" stroke="#7597A4" stroke-dasharray="4,2"></path>
<path d="M595.5 60L595.5 811" fill="none" stroke="#7597A4" stroke-dasharray="4,2"></path>
<path d="M674.5 60L674.5 811" fill="none" stroke="#7597A4" stroke-dasharray="4,2"></path>
<path d="M753.5 60L753.5 811" fill="none" stroke="#7597A4" stroke-dasharray="4,2"></path>
<path d="M833.5 60L833.5 811" fill="none" stroke="#7597A4" stroke-dasharray="4,2"></path>
<path d="M912.5 60L912.5 811" fill="none" stroke="#7597A4" stroke-dasharray="4,2"></path>
<path d="M991.5 60L991.5 811" fill="none" stroke="#7597A4" stroke-dasharray="4,2"></path>
<path d="M1071.5 60L1071.5 811" fill="none" stroke="#7597A4" stroke-dasharray="4,2"></path>
<path d="M119.5 811L119.5 60" fill="none" stroke="#6E7079" stroke-linecap="round"></path>
<path d="M119 811.5L1071 811.5" fill="none" stroke="#6E7079" stroke-linecap="round"></path>
<path d="M119 811.5L114 811.5" fill="none" stroke="#6E7079"></path>
<path d="M119 769.5L114 769.5" fill="none" stroke="#6E7079"></path>
<path d="M119 727.5L114 727.5" fill="none" stroke="#6E7079"></path>
<path d="M119 686.5L114 686.5" fill="none" stroke="#6E7079"></path>
<path d="M119 644.5L114 644.5" fill="none" stroke="#6E7079"></path>
<path d="M119 602.5L114 602.5" fill="none" stroke="#6E7079"></path>
<path d="M119 560.5L114 560.5" fill="none" stroke="#6E7079"></path>
<path d="M119 519.5L114 519.5" fill="none" stroke="#6E7079"></path>
<path d="M119 477.5L114 477.5" fill="none" stroke="#6E7079"></path>
<path d="M119 435.5L114 435.5" fill="none" stroke="#6E7079"></path>
<path d="M119 394.5L114 394.5" fill="none" stroke="#6E7079"></path>
<path d="M119 352.5L114 352.5" fill="none" stroke="#6E7079"></path>
<path d="M119 310.5L114 310.5" fill="none" stroke="#6E7079"></path>
<path d="M119 268.5L114 268.5" fill="none" stroke="#6E7079"></path>
<path d="M119 227.5L114 227.5" fill="none" stroke="#6E7079"></path>
<path d="M119 185.5L114 185.5" fill="none" stroke="#6E7079"></path>
<path d="M119 143.5L114 143.5" fill="none" stroke="#6E7079"></path>
<path d="M119 101.5L114 101.5" fill="none" stroke="#6E7079"></path>
<path d="M119 60.5L114 60.5" fill="none" stroke="#6E7079"></path>
<path d="M119.5 811L119.5 816" fill="none" stroke="#6E7079"></path>
<path d="M198.5 811L198.5 816" fill="none" stroke="#6E7079"></path>
<path d="M277.5 811L277.5 816" fill="none" stroke="#6E7079"></path>
<path d="M357.5 811L357.5 816" fill="none" stroke="#6E7079"></path>
<path d="M436.5 811L436.5 816" fill="none" stroke="#6E7079"></path>
<path d="M515.5 811L515.5 816" fill="none" stroke="#6E7079"></path>
<path d="M595.5 811L595.5 816" fill="none" stroke="#6E7079"></path>
<path d="M674.5 811L674.5 816" fill="none" stroke="#6E7079"></path>
<path d="M753.5 811L753.5 816" fill="none" stroke="#6E7079"></path>
<path d="M833.5 811L833.5 816" fill="none" stroke="#6E7079"></path>
<path d="M912.5 811L912.5 816" fill="none" stroke="#6E7079"></path>
<path d="M991.5 811L991.5 816" fill="none" stroke="#6E7079"></path>
<path d="M1071.5 811L1071.5 816" fill="none" stroke="#6E7079"></path>
<text dominant-baseline="central" text-anchor="end" style="font-size:30px;font-family:Arial;" transform="translate(111 811)" fill="#555">300</text>
<text dominant-baseline="central" text-anchor="end" style="font-size:30px;font-family:Arial;" transform="translate(111 769.2778)" fill="#555">350</text>
<text dominant-baseline="central" text-anchor="end" style="font-size:30px;font-family:Arial;" transform="translate(111 727.5556)" fill="#555">400</text>
<text dominant-baseline="central" text-anchor="end" style="font-size:30px;font-family:Arial;" transform="translate(111 685.8333)" fill="#555">450</text>
<text dominant-baseline="central" text-anchor="end" style="font-size:30px;font-family:Arial;" transform="translate(111 644.1111)" fill="#555">500</text>
<text dominant-baseline="central" text-anchor="end" style="font-size:30px;font-family:Arial;" transform="translate(111 602.3889)" fill="#555">550</text>
<text dominant-baseline="central" text-anchor="end" style="font-size:30px;font-family:Arial;" transform="translate(111 560.6667)" fill="#555">600</text>
<text dominant-baseline="central" text-anchor="end" style="font-size:30px;font-family:Arial;" transform="translate(111 518.9444)" fill="#555">650</text>
<text dominant-baseline="central" text-anchor="end" style="font-size:30px;font-family:Arial;" transform="translate(111 477.2222)" fill="#555">700</text>
<text dominant-baseline="central" text-anchor="end" style="font-size:30px;font-family:Arial;" transform="translate(111 435.5)" fill="#555">750</text>
<text dominant-baseline="central" text-anchor="end" style="font-size:30px;font-family:Arial;" transform="translate(111 393.7778)" fill="#555">800</text>
<text dominant-baseline="central" text-anchor="end" style="font-size:30px;font-family:Arial;" transform="translate(111 352.0556)" fill="#555">850</text>
<text dominant-baseline="central" text-anchor="end" style="font-size:30px;font-family:Arial;" transform="translate(111 310.3333)" fill="#555">900</text>
<text dominant-baseline="central" text-anchor="end" style="font-size:30px;font-family:Arial;" transform="translate(111 268.6111)" fill="#555">950</text>
<text dominant-baseline="central" text-anchor="end" style="font-size:30px;font-family:Arial;" transform="translate(111 226.8889)" fill="#555">1,000</text>
<text dominant-baseline="central" text-anchor="end" style="font-size:30px;font-family:Arial;" transform="translate(111 185.1667)" fill="#555">1,050</text>
<text dominant-baseline="central" text-anchor="end" style="font-size:30px;font-family:Arial;" transform="translate(111 143.4444)" fill="#555">1,100</text>
<text dominant-baseline="central" text-anchor="end" style="font-size:30px;font-family:Arial;" transform="translate(111 101.7222)" fill="#555">1,150</text>
<text dominant-baseline="central" text-anchor="end" style="font-size:30px;font-family:Arial;" transform="translate(111 60)" fill="#555">1,200</text>
<text dominant-baseline="central" text-anchor="middle" style="font-size:30px;font-family:Arial;" y="15" transform="translate(119 819)" fill="#555">0</text>
<text dominant-baseline="central" text-anchor="middle" style="font-size:30px;font-family:Arial;" y="15" transform="translate(198.3333 819)" fill="#555">50</text>
<text dominant-baseline="central" text-anchor="middle" style="font-size:30px;font-family:Arial;" y="15" transform="translate(277.6667 819)" fill="#555">100</text>
<text dominant-baseline="central" text-anchor="middle" style="font-size:30px;font-family:Arial;" y="15" transform="translate(357 819)" fill="#555">150</text>
<text dominant-baseline="central" text-anchor="middle" style="font-size:30px;font-family:Arial;" y="15" transform="translate(436.3333 819)" fill="#555">200</text>
<text dominant-baseline="central" text-anchor="middle" style="font-size:30px;font-family:Arial;" y="15" transform="translate(515.6667 819)" fill="#555">250</text>
<text dominant-baseline="central" text-anchor="middle" style="font-size:30px;font-family:Arial;" y="15" transform="translate(595 819)" fill="#555">300</text>
<text dominant-baseline="central" text-anchor="middle" style="font-size:30px;font-family:Arial;" y="15" transform="translate(674.3333 819)" fill="#555">350</text>
<text dominant-baseline="central" text-anchor="middle" style="font-size:30px;font-family:Arial;" y="15" transform="translate(753.6667 819)" fill="#555">400</text>
<text dominant-baseline="central" text-anchor="middle" style="font-size:30px;font-family:Arial;" y="15" transform="translate(833 819)" fill="#555">450</text>
<text dominant-baseline="central" text-anchor="middle" style="font-size:30px;font-family:Arial;" y="15" transform="translate(912.3333 819)" fill="#555">500</text>
<text dominant-baseline="central" text-anchor="middle" style="font-size:30px;font-family:Arial;" y="15" transform="translate(991.6667 819)" fill="#555">550</text>
<text dominant-baseline="central" text-anchor="middle" style="font-size:30px;font-family:Arial;" y="15" transform="translate(1071 819)" fill="#555">600</text>
</svg>