<svg width="1190" height="881" xmlns="http://www.w3.org/2000/svg" xmlns:xlink="http://www.w3.org/1999/xlink" version="1.1" baseProfile="full" viewBox="0 0 1190 881">
<rect width="1190" height="881" x="0" y="0" id="0" fill="none" fill-opacity="1"></rect>
<path d="M294.625 440.5A15 15 0 1 1 264.625 440.5A330.375 330.375 0 1 1 925.375 440.5A15 15 0 1 1 895.375 440.5A300.375 300.375 0 0 0 294.625 440.5" fill="#E6EBF8"></path>
<path d="M304.625 440.5L329.625 440.5" fill="none" stroke="#555" stroke-width="5"></path>
<text dominant-baseline="central" text-anchor="start" style="font-size:30px;font-family:Microsoft YaHei;" x="339.625" y="440.50000000000006" fill="#555">-15</text>
<path d="M304.625 440.5L319.625 440.5" fill="none" stroke="#555" stroke-width="3"></path>
<path d="M305.198 422.2672L320.1684 423.2091" fill="none" stroke="#555" stroke-width="3"></path>
<path d="M306.9147 404.1064L321.7964 405.9864" fill="none" stroke="#555" stroke-width="3"></path>
<path d="M309.7683 386.0892L324.5026 388.8999" fill="none" stroke="#555" stroke-width="3"></path>
<path d="M313.7477 368.2867L328.2764 372.017" fill="none" stroke="#555" stroke-width="3"></path>
<path d="M318.837 350.7692L333.1028 355.4044" fill="none" stroke="#555" stroke-width="3"></path>
<path d="M318.837 350.7692L342.6134 358.4946" fill="none" stroke="#555" stroke-width="5"></path>
<text dominant-baseline="central" text-anchor="start" style="font-size:30px;font-family:Microsoft YaHei;" x="352.12394215112516" y="361.5847850614977" fill="#555">-5</text>
<path d="M318.837 350.7692L333.1028 355.4044" fill="none" stroke="#555" stroke-width="3"></path>
<path d="M325.0162 333.6058L338.9628 339.1277" fill="none" stroke="#555" stroke-width="3"></path>
<path d="M332.2608 316.8643L345.8333 323.251" fill="none" stroke="#555" stroke-width="3"></path>
<path d="M340.5424 300.6108L353.687 307.8371" fill="none" stroke="#555" stroke-width="3"></path>
<path d="M349.8283 284.9093L362.4932 292.9467" fill="none" stroke="#555" stroke-width="3"></path>
<path d="M360.0817 269.8219L372.2169 278.6386" fill="none" stroke="#555" stroke-width="3"></path>
<path d="M360.0817 269.8219L380.3071 284.5165" fill="none" stroke="#555" stroke-width="5"></path>
<text dominant-baseline="central" text-anchor="start" style="font-size:30px;font-family:Microsoft YaHei;" x="388.3972850614979" y="290.3943411958095" fill="#555">5</text>
<path d="M360.0817 269.8219L372.2169 278.6386" fill="none" stroke="#555" stroke-width="3"></path>
<path d="M371.2622 255.408L382.8199 264.9694" fill="none" stroke="#555" stroke-width="3"></path>
<path d="M383.3257 241.7246L394.2603 251.9928" fill="none" stroke="#555" stroke-width="3"></path>
<path d="M396.2246 228.8257L406.4928 239.7603" fill="none" stroke="#555" stroke-width="3"></path>
<path d="M409.908 216.7622L419.4694 228.3199" fill="none" stroke="#555" stroke-width="3"></path>
<path d="M424.3219 205.5817L433.1386 217.7169" fill="none" stroke="#555" stroke-width="3"></path>
<path d="M424.3219 205.5817L439.0165 225.8071" fill="none" stroke="#555" stroke-width="5"></path>
<text dominant-baseline="central" text-anchor="start" style="font-size:30px;font-family:Microsoft YaHei;" x="444.89434119580983" y="248.89728506149768" fill="#555">15</text>
<path d="M424.3219 205.5817L433.1386 217.7169" fill="none" stroke="#555" stroke-width="3"></path>
<path d="M439.4093 195.3283L447.4467 207.9932" fill="none" stroke="#555" stroke-width="3"></path>
<path d="M455.1108 186.0424L462.3371 199.187" fill="none" stroke="#555" stroke-width="3"></path>
<path d="M471.3643 177.7608L477.751 191.3333" fill="none" stroke="#555" stroke-width="3"></path>
<path d="M488.1058 170.5162L493.6277 184.4628" fill="none" stroke="#555" stroke-width="3"></path>
<path d="M505.2692 164.337L509.9044 178.6028" fill="none" stroke="#555" stroke-width="3"></path>
<path d="M505.2692 164.337L512.9946 188.1134" fill="none" stroke="#555" stroke-width="5"></path>
<text dominant-baseline="central" text-anchor="middle" style="font-size:30px;font-family:Microsoft YaHei;" x="516.0847850614975" y="212.62394215112525" fill="#555">25</text>
<path d="M505.2692 164.337L509.9044 178.6028" fill="none" stroke="#555" stroke-width="3"></path>
<path d="M522.7867 159.2477L526.517 173.7764" fill="none" stroke="#555" stroke-width="3"></path>
<path d="M540.5892 155.2683L543.3999 170.0026" fill="none" stroke="#555" stroke-width="3"></path>
<path d="M558.6064 152.4147L560.4864 167.2964" fill="none" stroke="#555" stroke-width="3"></path>
<path d="M576.7672 150.698L577.7091 165.6684" fill="none" stroke="#555" stroke-width="3"></path>
<path d="M595 150.125L595 165.125" fill="none" stroke="#555" stroke-width="3"></path>
<path d="M595 150.125L595 175.125" fill="none" stroke="#555" stroke-width="5"></path>
<text dominant-baseline="central" text-anchor="middle" style="font-size:30px;font-family:Microsoft YaHei;" x="594.9999999999993" y="200.125" fill="#555">35</text>
<path d="M595 150.125L595 165.125" fill="none" stroke="#555" stroke-width="3"></path>
<path d="M613.2328 150.698L612.2909 165.6684" fill="none" stroke="#555" stroke-width="3"></path>
<path d="M631.3936 152.4147L629.5136 167.2964" fill="none" stroke="#555" stroke-width="3"></path>
<path d="M649.4108 155.2683L646.6001 170.0026" fill="none" stroke="#555" stroke-width="3"></path>
<path d="M667.2133 159.2477L663.483 173.7764" fill="none" stroke="#555" stroke-width="3"></path>
<path d="M684.7308 164.337L680.0956 178.6028" fill="none" stroke="#555" stroke-width="3"></path>
<path d="M684.7308 164.337L677.0054 188.1134" fill="none" stroke="#555" stroke-width="5"></path>
<text dominant-baseline="central" text-anchor="middle" style="font-size:30px;font-family:Microsoft YaHei;" x="673.9152149385011" y="212.6239421511248" fill="#555">45</text>
<path d="M684.7308 164.337L680.0956 178.6028" fill="none" stroke="#555" stroke-width="3"></path>
<path d="M701.8942 170.5162L696.3723 184.4628" fill="none" stroke="#555" stroke-width="3"></path>
<path d="M718.6357 177.7608L712.249 191.3333" fill="none" stroke="#555" stroke-width="3"></path>
<path d="M734.8892 186.0424L727.6629 199.187" fill="none" stroke="#555" stroke-width="3"></path>
<path d="M750.5907 195.3283L742.5533 207.9932" fill="none" stroke="#555" stroke-width="3"></path>
<path d="M765.6781 205.5817L756.8614 217.7169" fill="none" stroke="#555" stroke-width="3"></path>
<path d="M765.6781 205.5817L750.9835 225.8071" fill="none" stroke="#555" stroke-width="5"></path>
<text dominant-baseline="central" text-anchor="end" style="font-size:30px;font-family:Microsoft YaHei;" x="745.105658804189" y="248.89728506149683" fill="#555">55</text>
<path d="M765.6781 205.5817L756.8614 217.7169" fill="none" stroke="#555" stroke-width="3"></path>
<path d="M780.092 216.7622L770.5306 228.3199" fill="none" stroke="#555" stroke-width="3"></path>
<path d="M793.7754 228.8257L783.5072 239.7603" fill="none" stroke="#555" stroke-width="3"></path>
<path d="M806.6743 241.7246L795.7397 251.9928" fill="none" stroke="#555" stroke-width="3"></path>
<path d="M818.7378 255.408L807.1801 264.9694" fill="none" stroke="#555" stroke-width="3"></path>
<path d="M829.9183 269.8219L817.7831 278.6386" fill="none" stroke="#555" stroke-width="3"></path>
<path d="M829.9183 269.8219L809.6929 284.5165" fill="none" stroke="#555" stroke-width="5"></path>
<text dominant-baseline="central" text-anchor="end" style="font-size:30px;font-family:Microsoft YaHei;" x="801.602714938501" y="290.394341195808" fill="#555">65</text>
<path d="M829.9183 269.8219L817.7831 278.6386" fill="none" stroke="#555" stroke-width="3"></path>
<path d="M840.1717 284.9093L827.5068 292.9467" fill="none" stroke="#555" stroke-width="3"></path>
<path d="M849.4576 300.6108L836.313 307.8371" fill="none" stroke="#555" stroke-width="3"></path>
<path d="M857.7392 316.8643L844.1667 323.251" fill="none" stroke="#555" stroke-width="3"></path>
<path d="M864.9838 333.6058L851.0372 339.1277" fill="none" stroke="#555" stroke-width="3"></path>
<path d="M871.163 350.7692L856.8972 355.4044" fill="none" stroke="#555" stroke-width="3"></path>
<path d="M871.163 350.7692L847.3866 358.4946" fill="none" stroke="#555" stroke-width="5"></path>
<text dominant-baseline="central" text-anchor="end" style="font-size:30px;font-family:Microsoft YaHei;" x="837.8760578488741" y="361.5847850614954" fill="#555">75</text>
<path d="M871.163 350.7692L856.8972 355.4044" fill="none" stroke="#555" stroke-width="3"></path>
<path d="M876.2523 368.2867L861.7236 372.017" fill="none" stroke="#555" stroke-width="3"></path>
<path d="M880.2317 386.0892L865.4974 388.8999" fill="none" stroke="#555" stroke-width="3"></path>
<path d="M883.0853 404.1064L868.2036 405.9864" fill="none" stroke="#555" stroke-width="3"></path>
<path d="M884.802 422.2672L869.8316 423.2091" fill="none" stroke="#555" stroke-width="3"></path>
<path d="M885.375 440.5L870.375 440.5" fill="none" stroke="#555" stroke-width="3"></path>
<path d="M885.375 440.5L860.375 440.5" fill="none" stroke="#555" stroke-width="5"></path>
<text dominant-baseline="central" text-anchor="end" style="font-size:30px;font-family:Microsoft YaHei;" x="850.375" y="440.499999999997" fill="#555">85</text>
<path d="M595 473.5375l0 0l0 0l0 0Z" fill="#f0f"></path>
<path d="M-0.0003 16.5187C1.3679 16.5187 2.492 16.5187 2.5466 16.5187L7.9935 16.5187C8.1701 16.5187 4.7344 16.5187 0.3198 16.5187C0.213 16.5187 0.1065 16.5187 -0.0003 16.5187C-4.4185 16.5187 -8 16.5187 -8 16.5187C-8 16.5187 -7.9979 16.5187 -7.9937 16.5187L-2.5468 16.5187C-2.4923 16.5187 -1.3681 16.5187 -0.0003 16.5187Z" transform="matrix(0,1,-1,0,595,440.5)" fill="#acc2cb"></path>
<path d="M294.625 440.5A15 15 0 1 1 264.625 440.5A330.375 330.375 0 1 1 925.375 440.5A15 15 0 1 1 895.375 440.5A300.375 300.375 0 0 0 294.625 440.5" fill="#acc2cb"></path>
</svg>