<?xml version="1.0" standalone="no"?><!DOCTYPE svg PUBLIC "-//W3C//DTD SVG 1.1//EN" "http://www.w3.org/Graphics/SVG/1.1/DTD/svg11.dtd"><svg t="1649829698655" class="icon" viewBox="0 0 1024 1024" version="1.1" xmlns="http://www.w3.org/2000/svg" p-id="27320" xmlns:xlink="http://www.w3.org/1999/xlink" width="128" height="128"><defs><style type="text/css"></style></defs><path d="M669.549714 919.259429l-104.082285-100.864a69.12 69.12 0 0 0-95.670858 0l-116.48 112.859428a513.901714 513.901714 0 0 0 140.105143 19.602286 496.566857 496.566857 0 0 0 176.128-31.597714zM511.451429 73.142857A431.835429 431.835429 0 0 0 73.142857 497.810286a423.68 423.68 0 0 0 247.003429 382.171428l144.018285-139.556571a69.193143 69.193143 0 0 1 95.670858 0l144.018285 139.556571A423.68 423.68 0 0 0 950.857143 497.810286 433.554286 433.554286 0 0 0 511.451429 73.142857z m69.193142 212.114286v-2.706286a24.210286 24.210286 0 0 1 48.384 0 11.885714 11.885714 0 0 1-0.548571 4.352v206.628572a32.073143 32.073143 0 0 0 64.109714 0v-5.449143a14.957714 14.957714 0 0 1-0.548571-4.900572 23.625143 23.625143 0 0 1 24.210286-23.442285 24.502857 24.502857 0 0 1 24.173714 21.248v12.544a79.945143 79.945143 0 0 1-159.780572 0.548571V285.257143z m-99.035428 29.44a24.210286 24.210286 0 0 1 48.384 0v227.913143a24.210286 24.210286 0 0 1-48.384 0 11.776 11.776 0 0 1 0.548571-4.352V318.537143a9.325714 9.325714 0 0 1-0.548571-3.657143z m-209.846857 163.035428a24.210286 24.210286 0 0 1 48.384 0c0 2.157714-0.585143 4.352-0.585143 5.997715v10.349714a32.073143 32.073143 0 0 0 64.146286 0V265.654857a24.210286 24.210286 0 0 1 48.384 0 9.179429 9.179429 0 0 1-0.548572 3.657143v224.621714a79.945143 79.945143 0 0 1-159.780571 0v-12.544h0.548571a9.179429 9.179429 0 0 1-0.548571-3.657143z m457.398857 165.741715H293.705143a23.442286 23.442286 0 1 1 0-46.884572 12.653714 12.653714 0 0 1 4.498286 0.548572h427.044571c1.682286 0 2.816-0.548571 4.498286-0.548572a23.625143 23.625143 0 0 1 24.173714 23.442286 24.502857 24.502857 0 0 1-24.758857 23.442286z m0 0" p-id="27321" fill="#474b4c"></path></svg>