<svg width="1190" height="881" xmlns="http://www.w3.org/2000/svg" xmlns:xlink="http://www.w3.org/1999/xlink" version="1.1" baseProfile="full" viewBox="0 0 1190 881">
<rect width="1190" height="881" x="0" y="0" id="0" fill="none" fill-opacity="1"></rect>
<path d="M38 420.5L1070 420.5A20 20 0 0 1 1090 440.5L1090 450.5A20 20 0 0 1 1070 470.5L38 470.5A20 20 0 0 1 18 450.5L18 440.5A20 20 0 0 1 38 420.5" fill="rgb(172,194,203)"></path>
<path d="M38 420.5L1070 420.5A20 20 0 0 1 1090 440.5L1090 450.5A20 20 0 0 1 1070 470.5L38 470.5A20 20 0 0 1 18 450.5L18 440.5A20 20 0 0 1 38 420.5" fill="rgb(92,179,204)"></path>
</svg>