<?xml version="1.0" standalone="no"?><!DOCTYPE svg PUBLIC "-//W3C//DTD SVG 1.1//EN" "http://www.w3.org/Graphics/SVG/1.1/DTD/svg11.dtd"><svg t="1649837118389" class="icon" viewBox="0 0 1024 1024" version="1.1" xmlns="http://www.w3.org/2000/svg" p-id="37529" xmlns:xlink="http://www.w3.org/1999/xlink" width="128" height="128"><defs><style type="text/css"></style></defs><path d="M512 1003.965217c-271.582609 0-493.078261-222.608696-489.73913-497.530434 4.452174-267.130435 223.721739-486.4 498.643478-481.947826C791.373913 28.93913 1011.756522 257.113043 1001.73913 534.26087c-10.017391 257.113043-222.608696 469.704348-489.73913 469.704347z m405.147826-376.208695H700.104348c-5.565217 0-12.243478-2.226087-16.695652-5.565218-8.904348-5.565217-11.130435-20.034783-7.791305-30.052174 3.33913-10.017391 11.130435-14.469565 23.373913-14.469565h228.173913c20.034783-112.417391-12.243478-280.486957-154.713043-394.017391-140.243478-111.304348-339.478261-122.434783-493.078261-21.147826-151.373913 100.173913-208.13913 272.695652-184.765217 415.165217H279.373913c4.452174 0 5.565217-1.113043 6.678261-5.565217 12.243478-46.747826 57.878261-73.46087 104.626087-63.443478 5.565217 1.113043 7.791304 0 11.130435-3.339131 43.408696-48.973913 86.817391-96.834783 129.113043-144.695652 15.582609-17.808696 31.165217-35.617391 46.747826-52.313044 10.017391-11.130435 27.826087-10.017391 36.730435 2.226087 6.678261 10.017391 5.565217 21.147826-4.452174 32.278261-54.53913 61.217391-109.078261 122.434783-164.730435 183.652174-3.33913 3.33913-5.565217 6.678261-8.904348 10.017392l3.339131 3.33913c15.582609 20.034783 22.26087 42.295652 18.921739 66.782609-4.452174 37.843478-34.504348 70.121739-71.234783 75.686956-41.182609 6.678261-79.026087-12.243478-95.721739-48.973913-2.226087-4.452174-4.452174-5.565217-8.904348-5.565217H105.73913C149.147826 793.6 311.652174 942.747826 526.469565 936.069565c199.234783-6.678261 349.495652-150.26087 390.678261-308.313043z" p-id="37530" fill="#d8e3e7"></path></svg>